<?xml version="1.0" encoding="UTF-8" standalone="no"?>
<!-- Created with Inkscape (http://www.inkscape.org/) -->

<svg
   xmlns:dc="http://purl.org/dc/elements/1.1/"
   xmlns:cc="http://creativecommons.org/ns#"
   xmlns:rdf="http://www.w3.org/1999/02/22-rdf-syntax-ns#"
   xmlns:svg="http://www.w3.org/2000/svg"
   xmlns="http://www.w3.org/2000/svg"
   xmlns:sodipodi="http://sodipodi.sourceforge.net/DTD/sodipodi-0.dtd"
   xmlns:inkscape="http://www.inkscape.org/namespaces/inkscape"
   width="100mm"
   height="100mm"
   viewBox="0 0 100 100"
   version="1.1"
   id="svg8"
   inkscape:version="0.92.4 (5da689c313, 2019-01-14)"
   sodipodi:docname="ring-cut.svg">
  <defs
     id="defs2" />
  <sodipodi:namedview
     id="base"
     pagecolor="#ffffff"
     bordercolor="#666666"
     borderopacity="1.0"
     inkscape:pageopacity="0.0"
     inkscape:pageshadow="2"
     inkscape:zoom="1.979899"
     inkscape:cx="148.84419"
     inkscape:cy="192.68767"
     inkscape:document-units="mm"
     inkscape:current-layer="layer1"
     showgrid="false"
     inkscape:window-width="1852"
     inkscape:window-height="1057"
     inkscape:window-x="1912"
     inkscape:window-y="-8"
     inkscape:window-maximized="1" />
  <metadata
     id="metadata5">
    <rdf:RDF>
      <cc:Work
         rdf:about="">
        <dc:format>image/svg+xml</dc:format>
        <dc:type
           rdf:resource="http://purl.org/dc/dcmitype/StillImage" />
        <dc:title></dc:title>
      </cc:Work>
    </rdf:RDF>
  </metadata>
  <g
     inkscape:label="F.SilkS"
     inkscape:groupmode="layer"
     id="layer1"
     transform="translate(0,-197)"
     style="display:inline">
    <path
       style="opacity:1;fill:#008080;fill-opacity:1;stroke:#008080;stroke-width:0.85841823;stroke-linecap:butt;stroke-linejoin:round;stroke-miterlimit:4;stroke-dasharray:none;stroke-opacity:1"
       d="M 255.44336 122.50977 A 94.058928 94.058892 0 0 0 188.97656 94.917969 A 94.058928 94.058892 0 0 0 94.917969 188.97656 A 94.058928 94.058892 0 0 0 122.50781 255.44336 L 155.7832 222.16797 A 46.960676 46.960651 0 0 1 142.01758 189.42969 A 46.960676 46.960651 0 0 1 188.29492 142.02148 A 46.960676 46.960651 0 0 1 222.18164 155.76953 L 255.44336 122.50977 z "
       id="path28"
       transform="matrix(0.26458333,0,0,0.26458333,0,197)" />
    <path
       style="opacity:1;fill:#008080;fill-opacity:1;stroke:#008080;stroke-width:0.85841823;stroke-linecap:butt;stroke-linejoin:round;stroke-miterlimit:4;stroke-dasharray:none;stroke-opacity:1"
       d="M 255.44336 122.50977 L 222.18164 155.76953 A 46.960676 46.960651 0 0 1 235.92773 188.06836 L 235.9375 188.97656 A 46.960676 46.960651 0 0 1 189.20312 235.9375 A 46.960676 46.960651 0 0 1 155.7832 222.16797 L 122.50781 255.44336 A 94.058928 94.058892 0 0 0 188.97656 283.03516 A 94.058928 94.058892 0 0 0 283.03516 188.97656 A 94.058928 94.058892 0 0 0 255.44336 122.50977 z "
       id="path12"
       transform="matrix(0.26458333,0,0,0.26458333,0,197)" />
  </g>
  <g
     inkscape:groupmode="layer"
     id="layer2"
     inkscape:label="Annotation"
     sodipodi:insensitive="true"
     style="display:none">
    <path
       style="display:inline;fill:none;stroke:#000000;stroke-width:0.26458332px;stroke-linecap:butt;stroke-linejoin:miter;stroke-opacity:1"
       d="m 20.093544,79.906456 59.06656,-59.06657"
       id="path8-7"
       inkscape:connector-curvature="0" />
  </g>
</svg>
