<?xml version="1.0" encoding="UTF-8" standalone="no"?>
<!-- Created with Inkscape (http://www.inkscape.org/) -->

<svg
   xmlns:dc="http://purl.org/dc/elements/1.1/"
   xmlns:cc="http://creativecommons.org/ns#"
   xmlns:rdf="http://www.w3.org/1999/02/22-rdf-syntax-ns#"
   xmlns:svg="http://www.w3.org/2000/svg"
   xmlns="http://www.w3.org/2000/svg"
   xmlns:sodipodi="http://sodipodi.sourceforge.net/DTD/sodipodi-0.dtd"
   xmlns:inkscape="http://www.inkscape.org/namespaces/inkscape"
   sodipodi:docname="hello-world.svg"
   inkscape:version="0.92.4 (5da689c313, 2019-01-14)"
   id="svg823"
   version="1.1"
   viewBox="0 0 100 100"
   height="100mm"
   width="100mm">
  <defs
     id="defs817" />
  <sodipodi:namedview
     id="base"
     pagecolor="#ffffff"
     bordercolor="#666666"
     borderopacity="1.0"
     inkscape:pageopacity="0.0"
     inkscape:pageshadow="2"
     inkscape:zoom="1.979899"
     inkscape:cx="89.063316"
     inkscape:cy="193.1392"
     inkscape:document-units="mm"
     inkscape:current-layer="flowRoot1368"
     showgrid="false"
     inkscape:window-width="1852"
     inkscape:window-height="1057"
     inkscape:window-x="-8"
     inkscape:window-y="-8"
     inkscape:window-maximized="1" />
  <metadata
     id="metadata820">
    <rdf:RDF>
      <cc:Work
         rdf:about="">
        <dc:format>image/svg+xml</dc:format>
        <dc:type
           rdf:resource="http://purl.org/dc/dcmitype/StillImage" />
        <dc:title></dc:title>
      </cc:Work>
    </rdf:RDF>
  </metadata>
  <g
     inkscape:label="F.Cu"
     inkscape:groupmode="layer"
     id="layer1"
     transform="translate(0,-197)">
    <g
       aria-label="Hello World!"
       transform="matrix(1.1037769,0,0,2.2019429,-31.56078,57.290405)"
       style="font-style:normal;font-variant:normal;font-weight:bold;font-stretch:normal;font-size:10.66666698px;line-height:1.25;font-family:'Microgramma D Extended';-inkscape-font-specification:'Microgramma D Extended, Bold';font-variant-ligatures:normal;font-variant-caps:normal;font-variant-numeric:normal;font-feature-settings:normal;text-align:start;letter-spacing:0px;word-spacing:0px;writing-mode:lr-tb;text-anchor:start;fill:#000000;fill-opacity:1;stroke:none"
       id="flowRoot1368">
      <path
         d="m 36.311367,82.534223 v 7.114667 h 2.272 v -2.570667 h 4.896 v 2.570667 h 2.272 v -7.114667 h -2.272 v 2.549333 h -4.896 v -2.549333 z"
         id="path1376"
         inkscape:connector-curvature="0" />
      <path
         inkscape:connector-curvature="0"
         style="stroke-width:1"
         d="m 50.598719,88.553221 v 1.187275 c 1.963236,-0.08193 2.599189,-0.474174 2.721052,-1.702175 h -1.877395 c -0.05785,0.347087 -0.219635,0.474214 -0.843657,0.5149 z"
         id="path834" />
      <path
         inkscape:connector-curvature="0"
         style="stroke-width:1"
         d="m 50.598719,84.477671 c -0.200524,-0.0048 -0.375446,-0.01267 -0.617996,-0.01267 -1.642667,0 -2.272052,0.106446 -2.762719,0.44778 -0.533333,0.373334 -0.682604,0.874846 -0.682604,2.229513 0,1.290666 0.149332,1.791877 0.639999,2.165209 0.458666,0.341335 1.152038,0.469372 2.613371,0.469372 0.327029,0 0.539235,-0.02508 0.809949,-0.03638 V 88.55322 c -0.18143,0.01182 -0.389096,0.01831 -0.6606,0.01831 -0.682667,0 -1.077332,-0.064 -1.279999,-0.213329 -0.181333,-0.138667 -0.234557,-0.3094 -0.234557,-0.8214 h 2.175156 v -1.034493 h -2.175156 c 0.02133,-0.704 0.320132,-0.864113 1.589465,-0.864113 0.252317,0 0.410439,0.02231 0.585691,0.0406 z"
         id="path832" />
      <path
         inkscape:connector-curvature="0"
         style="stroke-width:1"
         d="m 50.598719,84.477671 v 1.20112 c 0.343359,0.03583 0.602382,0.09539 0.715376,0.215442 0.117333,0.117333 0.138682,0.213404 0.149349,0.608071 h -0.864725 v 1.034493 h 2.752887 c 0.01067,-0.213332 0.01076,-0.447849 0.01076,-0.511848 0,-1.141333 -0.17093,-1.706685 -0.618931,-2.080019 -0.393481,-0.320276 -0.93429,-0.438477 -2.144724,-0.467259 z"
         id="path1378" />
      <path
         d="m 54.070034,82.534223 v 7.114667 h 1.888 v -7.114667 z"
         id="path1380"
         inkscape:connector-curvature="0" />
      <path
         d="m 56.820034,82.534223 v 7.114667 h 1.888 v -7.114667 z"
         id="path1382"
         inkscape:connector-curvature="0" />
      <path
         inkscape:connector-curvature="0"
         style="stroke-width:1"
         d="m 63.189904,84.479548 c -0.06814,-3.61e-4 -0.113878,-0.004 -0.185399,-0.004 -1.717332,0 -2.453035,0.117241 -2.922367,0.458576 -0.501333,0.362665 -0.650769,0.842745 -0.650769,2.026744 0,1.461334 0.117296,1.930704 0.586628,2.314705 0.479999,0.394666 1.109277,0.501288 2.997276,0.501288 0.06877,0 0.109165,-0.003 0.174631,-0.0033 V 88.34905 c -0.06625,9.61e-4 -0.102463,0.0092 -0.174631,0.0092 -0.607999,0 -1.034563,-0.05339 -1.269231,-0.160056 -0.341331,-0.138667 -0.426509,-0.362494 -0.426509,-1.034495 0,-1.077332 0.255741,-1.269414 1.69574,-1.269414 0.06467,0 0.112696,0.0078 0.174631,0.0094 z"
         id="path827" />
      <path
         inkscape:connector-curvature="0"
         style="stroke-width:1"
         d="m 63.189904,84.479548 v 1.424073 c 0.448821,0.01122 0.835485,0.05551 1.041696,0.139872 0.352001,0.138667 0.458347,0.383979 0.458347,1.066646 0,1.01281 -0.254131,1.219815 -1.500043,1.238906 v 1.424541 c 1.711505,-0.0078 2.339263,-0.117876 2.801579,-0.498002 0.458668,-0.384001 0.586628,-0.853408 0.586628,-2.240075 0,-1.269333 -0.138769,-1.728041 -0.650769,-2.101374 -0.449907,-0.327208 -1.159296,-0.445101 -2.737438,-0.454587 z"
         id="path1384" />
      <path
         d="m 69.379699,82.534223 2.677334,7.114667 h 3.36 l 1.408,-5.216001 1.429333,5.216001 h 3.338667 L 84.3557,82.534223 h -2.293334 l -1.92,5.322666 h -0.405333 l -1.621334,-5.322666 h -2.613333 l -1.610667,5.322666 h -0.394666 l -1.909334,-5.322666 z"
         id="path1386"
         inkscape:connector-curvature="0" />
      <path
         inkscape:connector-curvature="0"
         style="stroke-width:1"
         d="m 88.614793,84.495038 c -0.277397,-0.01089 -0.566815,-0.01948 -0.92278,-0.01948 -1.717335,0 -2.453037,0.117241 -2.922369,0.458576 -0.501334,0.362665 -0.650767,0.842745 -0.650767,2.026744 0,1.461334 0.117293,1.930704 0.586626,2.314705 0.480002,0.394666 1.109279,0.501288 2.997278,0.501288 0.359175,0 0.636705,-0.0084 0.912012,-0.0176 v -1.462796 c -0.232909,0.04144 -0.521448,0.06172 -0.912012,0.06172 -0.608001,0 -1.034565,-0.05339 -1.269231,-0.160055 -0.341333,-0.138667 -0.426511,-0.362495 -0.426511,-1.034495 0,-1.077333 0.255741,-1.269414 1.695742,-1.269414 0.369875,0 0.666916,0.03369 0.912012,0.08143 z"
         id="path839" />
      <path
         inkscape:connector-curvature="0"
         style="stroke-width:1"
         d="m 88.614793,84.495038 v 1.48063 c 0.108314,0.0211 0.231926,0.0384 0.303845,0.06782 0.352001,0.138667 0.458817,0.383979 0.458817,1.066646 0,0.775199 -0.143208,1.076114 -0.762662,1.186336 v 1.462796 c 1.15548,-0.03857 1.676555,-0.164961 2.064198,-0.483687 0.458665,-0.384001 0.586626,-0.853408 0.586626,-2.240075 0,-1.269333 -0.138767,-1.728041 -0.650767,-2.101374 -0.372651,-0.27102 -0.930862,-0.397121 -2.000057,-0.439097 z"
         id="path1388" />
      <path
         d="m 91.965868,84.603556 v 5.045334 h 1.888 v -2.090667 c 0,-0.778667 0.05333,-1.056 0.234667,-1.301334 0.181333,-0.234666 0.533333,-0.362666 0.96,-0.362666 0.778667,0 0.992,0.202666 0.992,0.949333 h 1.781334 v -0.341333 c 0,-1.514667 -0.512,-2.026667 -2.037334,-2.026667 -1.056,0 -1.589333,0.245333 -1.941333,0.885333 h -0.096 v -0.757333 z"
         id="path1390"
         inkscape:connector-curvature="0" />
      <path
         d="m 98.3617,82.534223 v 7.114667 h 1.888 v -7.114667 z"
         id="path1392"
         inkscape:connector-curvature="0" />
      <path
         inkscape:connector-curvature="0"
         style="stroke-width:1"
         d="m 104.59606,84.491283 c -0.18559,-0.01283 -0.36608,-0.02629 -0.60442,-0.02629 -1.30134,0 -1.82417,0.08528 -2.28284,0.383945 -0.53333,0.352 -0.73598,0.95984 -0.73598,2.23984 0,1.258667 0.12803,1.770884 0.54403,2.154883 0.43733,0.394667 1.08792,0.533206 2.45325,0.533206 0.24457,0 0.43267,-0.01394 0.62596,-0.02699 V 88.34059 c -0.0389,6.01e-4 -0.0629,0.007 -0.103,0.007 -1.41867,0 -1.63207,-0.170643 -1.63207,-1.279975 0,-1.009264 0.25762,-1.18191 1.73507,-1.183285 z"
         id="path844" />
      <path
         inkscape:connector-curvature="0"
         style="stroke-width:1"
         d="m 104.59606,84.491283 v 1.393093 c 0.006,-6e-6 0.009,-7.21e-4 0.0145,-7.21e-4 1.344,0 1.58899,0.19193 1.58899,1.237263 0,0.586667 -0.0746,0.853349 -0.28792,0.992015 -0.201,0.140691 -0.68254,0.218406 -1.31559,0.227646 v 1.409287 c 0.8858,-0.05979 1.30581,-0.263165 1.60351,-0.762259 h 0.096 v 0.661345 h 1.78142 v -7.114713 h -1.8877 v 2.741362 h -0.0749 c -0.29731,-0.52467 -0.67398,-0.725943 -1.51831,-0.784318 z"
         id="path1394" />
      <path
         d="m 109.2122,82.534223 v 4.064 h 2.13333 v -4.064 z m -0.128,4.885333 v 2.229334 h 2.38933 v -2.229334 z"
         id="path1396"
         inkscape:connector-curvature="0" />
    </g>
  </g>
</svg>
